<?xml version="1.0" standalone="no"?>
<!DOCTYPE svg PUBLIC "-//W3C//DTD SVG 20010904//EN"
 "http://www.w3.org/TR/2001/REC-SVG-20010904/DTD/svg10.dtd">
<svg version="1.0" xmlns="http://www.w3.org/2000/svg"
 width="757.000000pt" height="757.000000pt" viewBox="0 0 757.000000 757.000000"
 preserveAspectRatio="xMidYMid meet">
<metadata>
Created by potrace 1.14, written by Peter Selinger 2001-2017
</metadata>
<g transform="translate(0.000000,757.000000) scale(0.100000,-0.100000)"
fill="#000000" stroke="none">
<path d="M3737 7508 c-30 -29 -142 -136 -247 -238 -106 -102 -227 -219 -270
-260 -43 -41 -160 -154 -260 -250 -100 -96 -211 -202 -245 -235 -34 -33 -140
-135 -236 -227 -96 -92 -217 -209 -269 -260 l-95 -93 0 -2162 1 -2162 90 -86
c118 -114 409 -393 494 -475 57 -56 196 -189 520 -500 38 -36 159 -153 271
-260 111 -107 227 -219 257 -248 31 -28 58 -49 61 -46 3 3 62 58 130 122 68
65 143 135 166 157 22 22 101 96 174 165 73 69 154 145 180 170 26 25 116 110
201 190 84 80 177 168 206 195 29 28 103 97 164 155 62 58 151 142 199 187
l86 82 0 556 c0 305 -1 555 -4 555 -2 0 -172 -168 -378 -373 -205 -204 -544
-541 -752 -748 l-378 -377 -119 115 c-65 63 -217 210 -337 327 -121 116 -282
272 -360 348 l-141 136 -1 1814 -1 1813 147 145 c81 80 245 240 364 355 120
116 268 258 329 318 61 59 114 107 119 107 5 0 50 -42 102 -92 51 -51 254
-250 451 -443 196 -192 364 -358 373 -367 16 -16 21 -13 93 55 41 40 130 124
198 187 67 63 161 152 208 197 l87 82 -76 73 c-107 101 -345 327 -399 378 -50
47 -270 255 -360 340 -76 72 -196 186 -360 340 -73 69 -171 162 -219 207 -47
46 -91 83 -97 83 -6 0 -36 -24 -67 -52z"/>
<path d="M470 4909 l1 -1654 165 -135 c91 -74 175 -144 188 -155 26 -23 50
-42 126 -105 30 -25 57 -47 60 -50 3 -3 30 -25 60 -50 30 -25 60 -49 67 -55 7
-5 25 -20 40 -33 15 -12 39 -31 52 -42 13 -11 27 -20 30 -20 3 0 5 493 5 1095
-1 881 1 1093 11 1087 7 -4 86 -77 175 -162 205 -196 241 -231 266 -253 l21
-17 0 530 0 530 -26 24 c-45 42 -107 99 -175 160 -37 32 -77 68 -89 80 -41 37
-171 154 -195 174 -21 19 -134 120 -251 227 -66 60 -101 92 -139 125 -15 14
-53 48 -83 75 -31 28 -93 84 -139 125 -46 41 -91 82 -100 90 -9 8 -29 26 -43
39 l-27 24 0 -1654z"/>
<path d="M7045 6444 c-22 -20 -107 -93 -190 -162 -82 -69 -161 -136 -175 -148
-14 -13 -61 -53 -105 -90 -44 -36 -94 -78 -110 -93 -17 -14 -71 -60 -120 -101
-49 -41 -96 -82 -105 -90 -9 -8 -36 -31 -60 -50 -24 -19 -65 -53 -91 -75 -25
-22 -68 -58 -94 -80 -26 -22 -53 -45 -59 -50 -11 -10 -123 -105 -206 -175
-139 -117 -196 -165 -200 -170 -3 -3 -75 -63 -160 -134 -85 -71 -162 -136
-170 -145 -8 -9 -33 -29 -55 -46 -21 -16 -46 -36 -55 -45 -9 -8 -38 -33 -64
-55 -63 -53 -73 -61 -140 -119 -32 -27 -69 -58 -84 -70 -15 -11 -34 -27 -42
-36 -8 -8 -35 -31 -60 -51 -42 -34 -57 -47 -120 -102 -14 -12 -52 -44 -85 -72
-33 -27 -71 -60 -85 -71 -14 -12 -61 -52 -105 -89 -98 -82 -174 -147 -189
-160 -6 -6 -36 -30 -66 -55 -30 -25 -62 -52 -70 -60 -9 -8 -38 -33 -65 -55
-26 -22 -63 -52 -80 -67 -32 -27 -33 -27 -54 -9 -12 11 -40 34 -63 53 -23 18
-47 39 -54 46 -7 6 -15 12 -18 12 -3 0 -14 8 -24 18 -10 9 -42 37 -72 62 -30
25 -73 61 -96 80 -23 19 -50 42 -61 50 -44 35 -139 115 -156 132 -10 10 -21
18 -25 18 -5 0 -9 -911 -3 -942 0 -4 49 -54 109 -112 134 -130 330 -321 416
-404 46 -45 69 -61 79 -55 11 6 66 52 141 118 57 50 163 142 174 150 7 6 25
21 41 35 15 14 56 50 91 80 60 51 100 86 156 135 12 11 33 29 46 39 29 25 143
123 183 158 145 127 278 238 286 238 6 0 7 5 4 10 -3 6 0 10 9 10 8 0 16 4 18
8 2 5 26 29 54 53 28 24 77 67 109 94 74 64 82 71 145 124 29 25 58 50 64 55
15 14 134 117 164 142 13 10 36 30 51 44 15 14 38 34 52 45 38 32 243 208 255
219 6 6 35 31 65 56 29 25 65 56 79 69 14 12 45 39 69 60 53 44 77 65 116 99
17 15 58 51 92 80 l63 54 0 -1148 c0 -631 2 -1149 5 -1152 4 -4 23 15 113 117
32 34 75 82 97 106 22 23 74 80 115 125 41 46 80 88 85 94 6 6 55 61 110 121
143 158 177 195 208 227 l27 29 0 1554 c0 855 -3 1555 -7 1555 -5 -1 -26 -17
-48 -36z"/>
</g>
</svg>
