<svg xmlns="http://www.w3.org/2000/svg" viewBox="0 0 18.63 19.28" fill="#fff" xmlns:v="https://vecta.io/nano"><path d="M6.35 14.92a2.11 2.11 0 0 0-1.56.59A2.16 2.16 0 0 0 4.1 17a2.17 2.17 0 0 0 2.11 2.25h.07a2.13 2.13 0 0 0 1.49-.59 2.16 2.16 0 0 0 .69-1.52v-.04a2.15 2.15 0 0 0-2.11-2.18zm1.06 2.18a1.08 1.08 0 0 1-1.06 1.1h0a1 1 0 0 1-.78-.29 1.1 1.1 0 0 1 .7-1.91h0a1.07 1.07 0 0 1 .75.3 1.11 1.11 0 0 1 .35.77zm6.45-2.18h-.07A2.18 2.18 0 0 0 11.61 17a2.15 2.15 0 0 0 .59 1.56 2.12 2.12 0 0 0 1.52.69h.07a2.13 2.13 0 0 0 1.49-.59 2.16 2.16 0 0 0 .72-1.49v-.07a2.15 2.15 0 0 0-2.14-2.18zm1.06 2.18a1.08 1.08 0 0 1-1.06 1.1h0a1.07 1.07 0 0 1-1.09-1.06 1.07 1.07 0 0 1 .29-.79 1.11 1.11 0 0 1 .77-.35h0a1.07 1.07 0 0 1 .75.3 1.09 1.09 0 0 1 .34.76zm3.61-14.03a.59.59 0 0 0-.43-.26h-14A3.51 3.51 0 0 0 .57 0h0a.5.5 0 0 0-.42.17.51.51 0 0 0-.15.37.52.52 0 0 0 .15.38.5.5 0 0 0 .38.17h.06a2.59 2.59 0 0 1 2.54 2.19l1.38 8.33a2.6 2.6 0 0 0 2.57 2.21h8.38a.54.54 0 0 0 .48-.6.55.55 0 0 0-.49-.48H7.06a1.52 1.52 0 0 1-1.5-1.29L5.48 11h9.16a2.71 2.71 0 0 0 2.52-2l1.44-5.42a.58.58 0 0 0-.07-.51zm-2.39 5.69a1.56 1.56 0 0 1-1.5 1.17H5.29l-.57-3.45h12l-.61 2.28zm1.28-4.87l-.36 1.51H4.55l-.22-1.51z"/></svg>