<svg xmlns="http://www.w3.org/2000/svg" viewBox="0 0 19.84 19.84" fill="#308bcb" xmlns:v="https://vecta.io/nano"><path d="M14.79 11.5a1.6 1.6 0 0 0-1.57.41l-.85.86A12.06 12.06 0 0 1 7.12 8L8 7.13a1.57 1.57 0 0 0 .44-1.47A10.62 10.62 0 0 0 5.82.71 1.52 1.52 0 0 0 3.77.62a16.64 16.64 0 0 0-2.2 2.16A7.14 7.14 0 0 0 0 5.67 3.59 3.59 0 0 0 .14 7.2 9.15 9.15 0 0 0 .82 9a19.72 19.72 0 0 0 2.84 4.3 19.18 19.18 0 0 0 10.81 6.52h.14.14a5.65 5.65 0 0 0 1.82-1 14.4 14.4 0 0 0 2.63-2.66A1.57 1.57 0 0 0 19 14a13 13 0 0 0-4.21-2.5zM7.07 6.22L5.56 7.73l.21.41a13.16 13.16 0 0 0 6.53 6l.38.15 1.45-1.45a.27.27 0 0 1 .27-.1A11.62 11.62 0 0 1 18.16 15a.3.3 0 0 1 0 .41 13.41 13.41 0 0 1-2.4 2.42 5.05 5.05 0 0 1-1.25.73 17.87 17.87 0 0 1-9.91-6.07A18.08 18.08 0 0 1 2 8.48a8.65 8.65 0 0 1-.59-1.59 2.43 2.43 0 0 1-.08-1A5.76 5.76 0 0 1 2.56 3.6a14.6 14.6 0 0 1 2-2 .23.23 0 0 1 .33 0 9.44 9.44 0 0 1 2.28 4.33.31.31 0 0 1-.1.29zm8.39 2.21v.13l1.27-.14V8.3a5.73 5.73 0 0 0-2.21-4.15 5.29 5.29 0 0 0-3.06-1.06h-.12v1.28h.12a4.07 4.07 0 0 1 2.3.8 4.45 4.45 0 0 1 1.7 3.26zm1.01-6.66A9.84 9.84 0 0 0 11 0h-.13v1.28h.12a8.51 8.51 0 0 1 4.78 1.53 7 7 0 0 1 2.83 6.07V9h1.28v-.11a8.27 8.27 0 0 0-3.41-7.12z"/></svg>