<svg xmlns="http://www.w3.org/2000/svg" viewBox="0 0 16.05 19.84" fill="#308bcb" xmlns:v="https://vecta.io/nano"><path d="M14.61 3.45A7.88 7.88 0 0 0 8 0a7.88 7.88 0 0 0-6.56 3.45 8 8 0 0 0-.93 7.39 6.4 6.4 0 0 0 1.16 1.92L7.5 19.6a.68.68 0 0 0 1 .08l.08-.08 5.83-6.84a6.4 6.4 0 0 0 1.16-1.92 8 8 0 0 0-.96-7.39zm-.37 6.9a4.9 4.9 0 0 1-.91 1.5h0L8 18.08l-5.3-6.23a5.14 5.14 0 0 1-.92-1.5 6.65 6.65 0 0 1 .77-6.11A6.53 6.53 0 0 1 8 1.39a6.51 6.51 0 0 1 5.44 2.85 6.59 6.59 0 0 1 .77 6.11zM8 4.12A3.89 3.89 0 1 0 11.91 8 3.89 3.89 0 0 0 8 4.12zm0 6.38A2.5 2.5 0 1 1 10.53 8 2.5 2.5 0 0 1 8 10.5z"/></svg>