<svg xmlns="http://www.w3.org/2000/svg" viewBox="0 0 22.32 19.84" xmlns:v="https://vecta.io/nano"><path d="M11.16 19.84a2.4 2.4 0 0 1-1.65-.65l-.09-.1-7.58-7.91a6.66 6.66 0 0 1 0-9.18h0a6.39 6.39 0 0 1 9-.24l.23.24.08.08.09-.08a6.36 6.36 0 0 1 9-.24l.23.24a6.66 6.66 0 0 1 0 9.19L12.9 19.1a2.35 2.35 0 0 1-1.67.74zm-4.7-18.6h-.14a5.07 5.07 0 0 0-3.59 1.6h0a5.44 5.44 0 0 0 0 7.49l7.58 7.91a1.25 1.25 0 0 0 .88.37 1.14 1.14 0 0 0 .81-.37l7.59-7.92a5.43 5.43 0 0 0 0-7.48c-.06-.07-.13-.13-.19-.19a5.14 5.14 0 0 0-7.27.19l-1 1-1-1c-.06-.07-.13-.13-.19-.19a5.1 5.1 0 0 0-3.48-1.41z" fill="#308bcb"/></svg>